<?xml version="1.0" encoding="UTF-8" standalone="no"?><!DOCTYPE svg PUBLIC "-//W3C//DTD SVG 1.1//EN" "http://www.w3.org/Graphics/SVG/1.1/DTD/svg11.dtd"><svg width="100%" height="100%" viewBox="0 0 667 667" version="1.1" xmlns="http://www.w3.org/2000/svg" xmlns:xlink="http://www.w3.org/1999/xlink" xml:space="preserve" xmlns:serif="http://www.serif.com/" style="fill-rule:evenodd;clip-rule:evenodd;stroke-linecap:round;stroke-linejoin:round;stroke-miterlimit:1.5;"><path d="M125.517,165.133l190.075,-59.454l0,234.667l-134.675,0l0,156.296l-55.4,-55.4l0,-276.108Zm56.004,36.938l0,81.913l76.708,0l0,-105.963l-76.708,24.054l0,-0.004Z" style="fill:#20a564;"/><path d="M333.333,105.675l0,234.221l130.45,0l0,80.625l-72.967,57.204l0,-53.6l-52.7,0l0,144.133c0,0 79.275,-40.538 119.812,-71.617c40.537,-31.079 63.058,-49.546 63.058,-49.546l0,-163.05l-129.271,0l0,-106.3l73.867,23.421l0,18.467l56.304,0l0,-57.654l-188.554,-56.304Z" style="stroke:#000;stroke-width:4.17px;"/></svg>