<?xml version="1.0" encoding="UTF-8" standalone="no"?><!DOCTYPE svg PUBLIC "-//W3C//DTD SVG 1.1//EN" "http://www.w3.org/Graphics/SVG/1.1/DTD/svg11.dtd"><svg width="100%" height="100%" viewBox="0 0 300 300" version="1.1" xmlns="http://www.w3.org/2000/svg" xmlns:xlink="http://www.w3.org/1999/xlink" xml:space="preserve" xmlns:serif="http://www.serif.com/" style="fill-rule:evenodd;clip-rule:evenodd;stroke-linecap:round;stroke-linejoin:round;stroke-miterlimit:1.5;"><circle cx="150" cy="150" r="133.022" style="fill:#24c55e;"/><g><path d="M162.818,214.541l-81.451,0c-4.127,-5.292 -6.3,-11.294 -6.3,-17.405c0,-19.212 21.072,-34.81 47.026,-34.81c25.954,0 47.026,15.598 47.026,34.81c0,6.11 -2.173,12.113 -6.3,17.405Z" style="fill:none;stroke:#000;stroke-width:12.5px;"/><ellipse cx="122.092" cy="120.697" rx="25.66" ry="25.425" style="fill:none;stroke:#000;stroke-width:12.5px;"/></g><path d="M204.334,96.787l0,69.682c0,0.836 -0.679,1.515 -1.515,1.515l-3.03,0c-0.836,0 -1.515,-0.679 -1.515,-1.515l0,-69.682c0,-0.836 0.679,-1.515 1.515,-1.515l3.03,0c0.836,0 1.515,0.679 1.515,1.515Z" style="stroke:#000;stroke-width:12.5px;"/><path d="M166.463,128.607l69.682,-0.019c0.836,-0 1.515,0.678 1.515,1.514l0.001,3.03c0,0.836 -0.678,1.515 -1.514,1.515l-69.682,0.019c-0.836,0 -1.515,-0.678 -1.515,-1.514l-0.001,-3.03c-0,-0.836 0.678,-1.515 1.514,-1.515Z" style="stroke:#000;stroke-width:12.5px;"/></svg>