<?xml version="1.0" encoding="UTF-8" standalone="no"?><!DOCTYPE svg PUBLIC "-//W3C//DTD SVG 1.1//EN" "http://www.w3.org/Graphics/SVG/1.1/DTD/svg11.dtd"><svg width="100%" height="100%" viewBox="0 0 300 300" version="1.1" xmlns="http://www.w3.org/2000/svg" xmlns:xlink="http://www.w3.org/1999/xlink" xml:space="preserve" xmlns:serif="http://www.serif.com/" style="fill-rule:evenodd;clip-rule:evenodd;stroke-linecap:round;stroke-linejoin:round;stroke-miterlimit:1.5;"><circle cx="150" cy="150" r="133.022" style="fill:#24c55e;"/><path d="M68.14,79.025l78.51,-24.557l0,96.929l-55.627,0l0,64.558l-22.883,-22.883l0,-114.046Zm23.132,15.257l0,33.834l31.684,0l0,-43.768l-31.684,9.936l0,-0.002Z" style="fill:#fff;"/><path d="M153.978,54.465l0,96.744l53.882,0l0,33.302l-30.139,23.628l0,-22.139l-21.768,0l0,59.534c0,0 32.744,-16.744 49.488,-29.581c16.744,-12.837 26.046,-20.465 26.046,-20.465l0,-67.347l-53.395,0l0,-43.907l30.51,9.674l0,7.628l23.256,0l0,-23.814l-77.882,-23.256Z" style="stroke:#000;stroke-width:1.72px;"/></svg>