<?xml version="1.0" encoding="UTF-8" standalone="no"?><!DOCTYPE svg PUBLIC "-//W3C//DTD SVG 1.1//EN" "http://www.w3.org/Graphics/SVG/1.1/DTD/svg11.dtd"><svg width="100%" height="100%" viewBox="0 0 160 160" version="1.1" xmlns="http://www.w3.org/2000/svg" xmlns:xlink="http://www.w3.org/1999/xlink" xml:space="preserve" xmlns:serif="http://www.serif.com/" style="fill-rule:evenodd;clip-rule:evenodd;stroke-linecap:round;stroke-linejoin:round;stroke-miterlimit:1.5;"><path d="M30.124,39.632l45.618,-14.269l0,56.32l-32.322,0l0,37.511l-13.296,-13.296l0,-66.266Zm13.441,8.865l0,19.659l18.41,0l0,-25.431l-18.41,5.773Z" style="fill:#20a564;"/><path d="M80,25.363l0,56.212l31.308,0l0,19.35l-17.512,13.729l0,-12.864l-12.648,0l0,34.592c0,0 19.026,-9.729 28.755,-17.188c9.729,-7.459 15.134,-11.891 15.134,-11.891l0,-39.132l-31.025,0l0,-25.512l17.728,5.621l0,4.432l13.513,0l0,-13.837l-45.253,-13.513Z" style="stroke:#000;stroke-width:1px;"/></svg>